<?xml version="1.0" encoding="ISO-8859-1" standalone="no"?><!-- Generator: Adobe Illustrator 16.0.0, SVG Export Plug-In . SVG Version: 6.00 Build 0)  --><svg xmlns="http://www.w3.org/2000/svg" xmlns:xlink="http://www.w3.org/1999/xlink" fill="#000000" height="98.878px" id="Layer_1" style="enable-background:new 0 0 200 98.878" version="1.1" viewBox="0 0 200 98.878" width="200px" x="0px" xml:space="preserve" y="0px">
<g id="change1">
	<path d="M145.322,98.878l-0.02-1.346l54.66-1.418c0.021,0.871,0.037,1.737,0.037,2.604L145.322,98.878z    M54.68,98.794H0c0-0.986,0.015-1.979,0.043-2.965l54.657,1.56C54.687,97.862,54.68,98.328,54.68,98.794z M142.684,83.505   c-0.147-0.414-0.303-0.828-0.465-1.23l50.918-19.938c0.377,0.945,0.729,1.902,1.068,2.867L142.684,83.505z M57.351,83.419   L5.911,64.865c0.354-0.98,0.726-1.951,1.105-2.916l50.78,20.285C57.639,82.625,57.493,83.025,57.351,83.419z M134.909,69.894   c-0.248-0.307-0.513-0.607-0.769-0.904l41.061-36.108c0.703,0.795,1.387,1.605,2.061,2.426L134.909,69.894z M65.113,69.867   l-42.1-34.894c0.645-0.781,1.306-1.547,1.976-2.308L65.985,68.85C65.687,69.189,65.399,69.529,65.113,69.867z M123.262,59.882   l-1.326-0.756l26.521-47.82c0.832,0.458,1.66,0.937,2.476,1.415L123.262,59.882z M77.003,59.732l-27.797-47.09   c0.883-0.52,1.771-1.03,2.673-1.524l26.244,47.975C77.743,59.3,77.374,59.514,77.003,59.732z M108.594,54.285   c-0.472-0.086-0.947-0.166-1.42-0.246l8.741-53.974c0.964,0.154,1.931,0.324,2.886,0.505L108.594,54.285z M91.626,54.248   L81.421,0.53c1.008-0.195,2.018-0.367,3.037-0.53L92.9,54.028C92.469,54.096,92.046,54.167,91.626,54.248z" style="fill:#f0ebe1"/>
</g>
</svg>